<svg version="1.1" id="Layer_1" xmlns="http://www.w3.org/2000/svg" xmlns:xlink="http://www.w3.org/1999/xlink" x="0px" y="0px" width="100%" viewBox="0 0 1024 1024" enable-background="new 0 0 1024 1024" xml:space="preserve">

<path fill="#2F60E6" opacity="1.000000" stroke="none" d="
M232.843414,761.855225 
	C265.630554,717.193176 298.217590,672.826477 330.844818,628.489319 
	C357.362579,592.454224 383.928589,556.454651 410.525818,520.367981 
	C388.435638,490.637268 366.072968,460.860382 344.051453,430.833282 
	C300.874908,371.960632 257.889862,312.947540 214.821030,253.995880 
	C210.600540,248.218948 206.269928,242.520630 202.139984,236.680069 
	C199.593460,233.078812 197.492386,229.130783 199.955002,224.682281 
	C202.259705,220.519073 206.294678,219.876068 210.710190,219.890060 
	C235.209671,219.967773 259.718262,219.507721 284.207245,220.019104 
	C320.477020,220.776474 353.345337,231.565918 381.710297,254.840744 
	C397.375366,267.694672 409.261871,283.787537 421.097717,299.946838 
	C457.462433,349.595032 493.820251,399.248322 530.145752,448.925140 
	C547.229065,472.287323 564.161072,495.760529 581.348816,519.045227 
	C583.915649,522.522583 584.144958,524.797546 581.439575,528.450684 
	C556.096619,562.672241 531.015320,597.087280 505.797760,631.401978 
	C473.493225,675.359985 441.240051,719.356567 408.689026,763.131592 
	C403.367981,770.287354 396.418732,776.208862 390.587616,783.014099 
	C380.093567,795.261292 366.959839,803.956787 352.560822,810.511169 
	C332.358978,819.707031 311.409851,826.380737 288.742798,826.167175 
	C261.578857,825.911194 234.410629,826.100037 207.244293,826.130554 
	C202.886032,826.135437 198.262741,826.628784 195.916306,821.848938 
	C193.539413,817.007141 195.832413,812.732483 198.584854,808.916931 
	C209.866852,793.277100 221.289688,777.738953 232.843414,761.855225 
z" data-index="1"></path>
<path fill="#EE4155" opacity="1.000000" stroke="none" d="
M671.591064,437.582367 
	C661.054138,451.550446 650.667847,465.183929 640.448914,478.941711 
	C630.472168,492.373322 614.099060,493.049011 603.756165,479.736969 
	C586.815918,457.933563 570.298401,435.801178 553.650452,413.771362 
	C544.534058,401.707855 535.515686,389.570251 526.239990,377.181396 
	C533.816406,366.839081 541.345032,356.522369 548.915039,346.236145 
	C569.619812,318.102325 589.915222,289.653351 611.194641,261.960754 
	C627.719788,240.455399 649.439575,226.278656 676.613770,221.596954 
	C682.280884,220.620605 688.085999,220.004761 693.830017,219.985733 
	C734.495483,219.850998 775.161621,219.940506 815.827393,219.872879 
	C819.525024,219.866730 822.951294,220.246201 824.937439,223.687225 
	C827.095825,227.426620 825.375305,230.780106 823.118774,233.825546 
	C810.142639,251.338333 797.132935,268.826294 784.127258,286.317169 
	C747.790527,335.185120 711.450378,384.050598 675.110352,432.916077 
	C674.019104,434.383484 672.913757,435.840363 671.591064,437.582367 
z" data-index="2"></path>
<path fill="#2F2E74" opacity="1.000000" stroke="none" d="
M697.028931,825.907654 
	C671.596313,825.272583 649.269348,816.413391 629.640198,800.433899 
	C615.395569,788.837830 605.387329,773.626221 594.567627,759.128052 
	C573.304993,730.636414 552.153931,702.061401 530.967529,673.513000 
	C530.002686,672.212952 529.143066,670.834900 528.249451,669.515381 
	C548.054382,642.567261 567.718567,615.790283 587.409790,589.033142 
	C591.744507,583.142883 596.175903,577.323730 600.561157,571.470703 
	C609.109924,560.060425 626.708923,559.548462 635.834412,571.638550 
	C674.862549,623.346497 714.087830,674.905823 753.320618,726.458984 
	C774.254456,753.966797 795.406982,781.308411 816.277039,808.864197 
	C818.199158,811.402100 818.961243,814.896790 819.946045,818.045959 
	C821.097778,821.729126 818.377747,823.302063 814.929810,824.901855 
	C776.825989,825.018188 739.533386,825.006531 702.240906,825.056519 
	C700.503174,825.058838 698.766235,825.611328 697.028931,825.907654 
z" data-index="3" style="opacity: 1;"></path>
<path fill="#03013D" opacity="1.000000" stroke="none" d="
M697.493530,825.959717 
	C698.766235,825.611328 700.503174,825.058838 702.240906,825.056519 
	C739.533386,825.006531 776.825989,825.018188 814.591064,825.019775 
	C813.568542,825.357727 812.073914,825.985535 810.578430,825.987488 
	C773.038330,826.035645 735.498230,826.017883 697.493530,825.959717 
z" data-index="4"></path>
</svg>